<svg xmlns="http://www.w3.org/2000/svg" xmlns:xlink="http://www.w3.org/1999/xlink" version="1.1" x="0px" y="0px" viewBox="0 0 100 100" style="enable-background:new 0 0 100 100;" xml:space="preserve"><g><path fill="white" d="M50,14c-19.8,0-36,16.2-36,36s16.2,36,36,36s36-16.2,36-36S69.8,14,50,14z M50,80.7c-16.9,0-30.7-13.9-30.7-30.7   S33.1,19.3,50,19.3S80.7,33.1,80.7,50S66.9,80.7,50,80.7z"></path><path fill="white" d="M67,46.8l-24.6-14c-0.9-0.5-1.8-0.5-2.6,0s-1.2,1.4-1.2,2.3v28.1c0,0.9,0.5,1.8,1.2,2.3c0.4,0.2,0.9,0.4,1.4,0.4   s0.9-0.2,1.2-0.4l24.6-14c0.9-0.5,1.4-1.4,1.4-2.3S67.9,47.4,67,46.8z"></path></g></svg>